<svg width="29" height="29" viewBox="0 0 29 29" fill="none" xmlns="http://www.w3.org/2000/svg">
    <rect x="0.231934" width="28.03" height="28.03" rx="6.40685" fill="#68CE61" style="fill:#68CE61;fill:color(display-p3 0.4078 0.8078 0.3804);fill-opacity:1;"/>
    <path d="M20.6143 8.12472C19.8323 7.33509 18.901 6.709 17.8746 6.28292C16.8482 5.85684 15.7473 5.63931 14.636 5.64299C9.97952 5.64299 6.18444 9.43808 6.18444 14.0945C6.18444 15.587 6.57674 17.0368 7.31017 18.316L6.11621 22.6996L10.5936 21.5227C11.8302 22.1964 13.2203 22.5546 14.636 22.5546C19.2924 22.5546 23.0875 18.7595 23.0875 14.1031C23.0875 11.8431 22.2091 9.71951 20.6143 8.12472ZM14.636 21.1218C13.3738 21.1218 12.1372 20.7807 11.0541 20.1411L10.7982 19.9876L8.13741 20.6869L8.84526 18.0943L8.6747 17.8299C7.97329 16.7102 7.60092 15.4158 7.60013 14.0945C7.60013 10.2227 10.7556 7.06721 14.6274 7.06721C16.5037 7.06721 18.269 7.80065 19.5909 9.13106C20.2455 9.7825 20.7643 10.5575 21.1171 11.411C21.47 12.2645 21.6498 13.1795 21.6462 14.1031C21.6633 17.9749 18.5078 21.1218 14.636 21.1218ZM18.4908 15.8684C18.2775 15.7661 17.2371 15.2544 17.0495 15.1776C16.8533 15.1094 16.7169 15.0753 16.5719 15.28C16.4269 15.4932 16.0261 15.9707 15.9067 16.1072C15.7873 16.2522 15.6594 16.2692 15.4462 16.1584C15.2329 16.056 14.5507 15.8258 13.749 15.1094C13.1179 14.5465 12.7 13.8557 12.5721 13.6425C12.4527 13.4293 12.5551 13.3184 12.6659 13.2076C12.7597 13.1138 12.8791 12.9603 12.9815 12.8409C13.0838 12.7215 13.1265 12.6277 13.1947 12.4912C13.2629 12.3462 13.2288 12.2268 13.1776 12.1245C13.1265 12.0221 12.7 10.9817 12.5295 10.5553C12.3589 10.1459 12.1798 10.1971 12.0519 10.1886H11.6425C11.4976 10.1886 11.2758 10.2397 11.0797 10.4529C10.8921 10.6662 10.3462 11.1778 10.3462 12.2183C10.3462 13.2588 11.1053 14.2651 11.2076 14.4015C11.3099 14.5465 12.7 16.6786 14.8151 17.5911C15.3182 17.8129 15.7105 17.9408 16.0176 18.0346C16.5207 18.1966 16.9812 18.171 17.348 18.1199C17.7573 18.0602 18.6016 17.6082 18.7722 17.1135C18.9513 16.6189 18.9513 16.201 18.8916 16.1072C18.8319 16.0134 18.704 15.9707 18.4908 15.8684Z" fill="white" style="fill:white;fill-opacity:1;"/>
</svg>