<svg width="29" height="29" viewBox="0 0 29 29" fill="none" xmlns="http://www.w3.org/2000/svg">
    <g clip-path="url(#clip0_249_205)">
        <path d="M14.1335 0.212601C8.36991 0.212601 6.68429 0.218546 6.35664 0.245727C5.17386 0.344044 4.43786 0.530274 3.63603 0.929488C3.0181 1.23633 2.53076 1.59202 2.04979 2.09061C1.17386 2.99988 0.642984 4.11854 0.450809 5.44826C0.357376 6.0938 0.330195 6.22546 0.324674 9.5228C0.322551 10.6219 0.324674 12.0684 0.324674 14.0087C0.324674 19.7675 0.331045 21.4515 0.35865 21.7785C0.454207 22.9294 0.634703 23.6535 1.01693 24.4456C1.74741 25.9617 3.14254 27.0999 4.78611 27.5246C5.35521 27.6711 5.98376 27.7518 6.79068 27.7901C7.13256 27.8049 10.6172 27.8155 14.104 27.8155C17.5907 27.8155 21.0775 27.8113 21.4109 27.7943C22.3452 27.7504 22.8877 27.6775 23.4876 27.5225C25.1418 27.0957 26.5115 25.9745 27.2568 24.4371C27.6316 23.6641 27.8217 22.9124 27.9077 21.8216C27.9263 21.5838 27.9342 17.7919 27.9342 14.005C27.9342 10.2176 27.9257 6.43271 27.907 6.19488C27.82 5.08642 27.6299 4.34108 27.243 3.55326C26.9255 2.90836 26.573 2.42676 26.0613 1.93432C25.148 1.06199 24.031 0.531123 22.7 0.33916C22.0551 0.245939 21.9267 0.218334 18.6268 0.212601H14.1335Z" fill="url(#paint0_radial_249_205)" style=""/>
        <path d="M14.1335 0.212601C8.36991 0.212601 6.68429 0.218546 6.35664 0.245727C5.17386 0.344044 4.43786 0.530274 3.63603 0.929488C3.0181 1.23633 2.53076 1.59202 2.04979 2.09061C1.17386 2.99988 0.642984 4.11854 0.450809 5.44826C0.357376 6.0938 0.330195 6.22546 0.324674 9.5228C0.322551 10.6219 0.324674 12.0684 0.324674 14.0087C0.324674 19.7675 0.331045 21.4515 0.35865 21.7785C0.454207 22.9294 0.634703 23.6535 1.01693 24.4456C1.74741 25.9617 3.14254 27.0999 4.78611 27.5246C5.35521 27.6711 5.98376 27.7518 6.79068 27.7901C7.13256 27.8049 10.6172 27.8155 14.104 27.8155C17.5907 27.8155 21.0775 27.8113 21.4109 27.7943C22.3452 27.7504 22.8877 27.6775 23.4876 27.5225C25.1418 27.0957 26.5115 25.9745 27.2568 24.4371C27.6316 23.6641 27.8217 22.9124 27.9077 21.8216C27.9263 21.5838 27.9342 17.7919 27.9342 14.005C27.9342 10.2176 27.9257 6.43271 27.907 6.19488C27.82 5.08642 27.6299 4.34108 27.243 3.55326C26.9255 2.90836 26.573 2.42676 26.0613 1.93432C25.148 1.06199 24.031 0.531123 22.7 0.33916C22.0551 0.245939 21.9267 0.218334 18.6268 0.212601H14.1335Z" fill="url(#paint1_radial_249_205)" style=""/>
        <path d="M14.1272 3.82219C11.359 3.82219 11.0116 3.83429 9.92436 3.88377C8.83926 3.93346 8.09859 4.10525 7.45051 4.35731C6.78012 4.61765 6.21145 4.9659 5.64491 5.53265C5.07794 6.0992 4.72969 6.66787 4.4685 7.33804C4.2158 7.98634 4.0438 8.72722 3.99496 9.8119C3.94633 10.8991 3.93359 11.2467 3.93359 14.0149C3.93359 16.7831 3.94591 17.1294 3.99517 18.2166C4.04508 19.3017 4.21687 20.0424 4.46871 20.6905C4.72926 21.3609 5.07751 21.9295 5.64427 22.4961C6.2106 23.0631 6.77927 23.4122 7.44923 23.6725C8.09774 23.9246 8.83863 24.0963 9.92351 24.146C11.0107 24.1955 11.3579 24.2076 14.1259 24.2076C16.8943 24.2076 17.2406 24.1955 18.3278 24.146C19.4129 24.0963 20.1545 23.9246 20.803 23.6725C21.4731 23.4122 22.041 23.0631 22.6073 22.4961C23.1743 21.9295 23.5225 21.3609 23.7837 20.6907C24.0343 20.0424 24.2063 19.3015 24.2572 18.2169C24.3061 17.1296 24.3188 16.7831 24.3188 14.0149C24.3188 11.2467 24.3061 10.8993 24.2572 9.81211C24.2063 8.72701 24.0343 7.98634 23.7837 7.33825C23.5225 6.66787 23.1743 6.0992 22.6073 5.53265C22.0403 4.96568 21.4734 4.61743 20.8023 4.35731C20.1525 4.10525 19.4114 3.93346 18.3263 3.88377C17.2391 3.83429 16.893 3.82219 14.124 3.82219H14.1272ZM13.2128 5.659C13.4842 5.65858 13.787 5.659 14.1272 5.659C16.8486 5.659 17.1712 5.66877 18.2459 5.71761C19.2397 5.76305 19.779 5.92911 20.1383 6.06862C20.614 6.25336 20.9531 6.47421 21.3096 6.83095C21.6664 7.1877 21.8872 7.52745 22.0724 8.00311C22.2119 8.36198 22.3782 8.90135 22.4234 9.89514C22.4722 10.9696 22.4829 11.2924 22.4829 14.0126C22.4829 16.7327 22.4722 17.0555 22.4234 18.13C22.378 19.1238 22.2119 19.6632 22.0724 20.022C21.8876 20.4977 21.6664 20.8364 21.3096 21.1929C20.9529 21.5497 20.6142 21.7705 20.1383 21.9552C19.7794 22.0954 19.2397 22.261 18.2459 22.3065C17.1714 22.3553 16.8486 22.3659 14.1272 22.3659C11.4055 22.3659 11.0829 22.3553 10.0085 22.3065C9.01466 22.2606 8.4753 22.0945 8.11579 21.955C7.64013 21.7703 7.30038 21.5494 6.94363 21.1927C6.58689 20.836 6.36604 20.497 6.18088 20.0212C6.04136 19.6623 5.87509 19.1229 5.82986 18.1292C5.78102 17.0547 5.77126 16.7319 5.77126 14.01C5.77126 11.2881 5.78102 10.9671 5.82986 9.89259C5.87531 8.8988 6.04136 8.35943 6.18088 8.00014C6.36562 7.52448 6.58689 7.18472 6.94363 6.82798C7.30038 6.47123 7.64013 6.25039 8.11579 6.06522C8.47509 5.92507 9.01466 5.75944 10.0085 5.71379C10.9487 5.67132 11.3131 5.65858 13.2128 5.65645V5.659ZM19.5679 7.35142C18.8927 7.35142 18.3448 7.89864 18.3448 8.57412C18.3448 9.24939 18.8927 9.79724 19.5679 9.79724C20.2432 9.79724 20.7911 9.24939 20.7911 8.57412C20.7911 7.89885 20.2432 7.35099 19.5679 7.35099V7.35142ZM14.1272 8.78052C11.2365 8.78052 8.89278 11.1242 8.89278 14.0149C8.89278 16.9056 11.2365 19.2482 14.1272 19.2482C17.0179 19.2482 19.3607 16.9056 19.3607 14.0149C19.3607 11.1242 17.0179 8.78052 14.1272 8.78052ZM14.1272 10.6173C16.0035 10.6173 17.5247 12.1384 17.5247 14.0149C17.5247 15.8912 16.0035 17.4125 14.1272 17.4125C12.2506 17.4125 10.7296 15.8912 10.7296 14.0149C10.7296 12.1384 12.2506 10.6173 14.1272 10.6173Z" fill="white" style="fill:white;fill-opacity:1;"/>
    </g>
    <defs>
        <radialGradient id="paint0_radial_249_205" cx="0" cy="0" r="1" gradientUnits="userSpaceOnUse" gradientTransform="translate(7.6578 29.9415) rotate(-90) scale(27.3566 25.4507)">
            <stop stop-color="#FFDD55" style="stop-color:#FFDD55;stop-color:color(display-p3 1.0000 0.8667 0.3333);stop-opacity:1;"/>
            <stop offset="0.1" stop-color="#FFDD55" style="stop-color:#FFDD55;stop-color:color(display-p3 1.0000 0.8667 0.3333);stop-opacity:1;"/>
            <stop offset="0.5" stop-color="#FF543E" style="stop-color:#FF543E;stop-color:color(display-p3 1.0000 0.3294 0.2431);stop-opacity:1;"/>
            <stop offset="1" stop-color="#C837AB" style="stop-color:#C837AB;stop-color:color(display-p3 0.7843 0.2157 0.6706);stop-opacity:1;"/>
        </radialGradient>
        <radialGradient id="paint1_radial_249_205" cx="0" cy="0" r="1" gradientUnits="userSpaceOnUse" gradientTransform="translate(-4.30117 2.20107) rotate(78.6776) scale(12.2286 50.4196)">
            <stop stop-color="#3771C8" style="stop-color:#3771C8;stop-color:color(display-p3 0.2157 0.4431 0.7843);stop-opacity:1;"/>
            <stop offset="0.128" stop-color="#3771C8" style="stop-color:#3771C8;stop-color:color(display-p3 0.2157 0.4431 0.7843);stop-opacity:1;"/>
            <stop offset="1" stop-color="#6600FF" stop-opacity="0" style="stop-color:none;stop-opacity:0;"/>
        </radialGradient>
        <clipPath id="clip0_249_205">
            <rect width="28.0308" height="28.03" fill="white" style="fill:white;fill-opacity:1;" transform="translate(0.111328)"/>
        </clipPath>
    </defs>
</svg>