<svg width="20" height="13" viewBox="0 0 20 13" fill="none" xmlns="http://www.w3.org/2000/svg">
    <path fill-rule="evenodd" clip-rule="evenodd" d="M13.7345 0.688262C14.3975 0.688262 14.9345 1.22602 14.9345 1.88826V4.63694L18.7077 0.86375C18.8224 0.748999 18.9769 0.6875 19.1322 0.6875C19.2094 0.6875 19.2867 0.70175 19.3617 0.73325C19.5867 0.8255 19.7322 1.04525 19.7322 1.2875V12.0875C19.7322 12.3312 19.5867 12.5495 19.3617 12.6433C19.2867 12.674 19.2094 12.6875 19.1322 12.6875C18.9777 12.6875 18.8224 12.626 18.7077 12.512L14.9345 8.73881L14.9322 11.4875C14.9322 12.1505 14.3952 12.6875 13.7322 12.6875H1.73223C1.06923 12.6875 0.532227 12.1505 0.532227 11.4875L0.534477 1.88825C0.534477 1.226 1.07148 0.688247 1.73448 0.688247L13.7345 0.688262Z" fill="#909090" style="fill:#909090;fill:color(display-p3 0.5665 0.5665 0.5665);fill-opacity:1;"/>
</svg>