<svg width="135" height="40" viewBox="0 0 135 40" fill="none" xmlns="http://www.w3.org/2000/svg">
    <path d="M129.996 39.9992H4.99991C2.24994 39.9992 0 37.7493 0 34.9993V4.99991C0 2.24994 2.24994 0 4.99991 0H129.996C132.746 0 134.996 2.24994 134.996 4.99991V34.9993C134.996 37.7493 132.746 39.9992 129.996 39.9992Z" fill="#100F0D" style="fill:#100F0D;fill:color(display-p3 0.0627 0.0588 0.0510);fill-opacity:1;"/>
    <path d="M129.996 0H4.99991C2.24994 0 0 2.24994 0 4.99991V34.9993C0 37.7493 2.24994 39.9992 4.99991 39.9992H129.996C132.746 39.9992 134.996 37.7493 134.996 34.9993V4.99991C134.996 2.24994 132.746 0 129.996 0ZM129.996 0.79958C132.312 0.79958 134.196 2.68397 134.196 4.99991V34.9993C134.196 37.3153 132.312 39.1997 129.996 39.1997H4.99991C2.68397 39.1997 0.800405 37.3153 0.800405 34.9993V4.99991C0.800405 2.68397 2.68397 0.79958 4.99991 0.79958H129.996Z" fill="#A2A2A1" style="fill:#A2A2A1;fill:color(display-p3 0.6353 0.6353 0.6314);fill-opacity:1;"/>
    <path d="M106.933 29.9992H108.799V17.4974H106.933V29.9992ZM123.74 22.0011L121.601 27.421H121.537L119.317 22.0011H117.307L120.637 29.5762L118.738 33.7901H120.684L125.815 22.0015L123.74 22.0011ZM113.157 28.5791C112.547 28.5791 111.694 28.2732 111.694 27.5174C111.694 26.5525 112.756 26.1826 113.672 26.1826C114.492 26.1826 114.879 26.3592 115.377 26.6006C115.232 27.7588 114.235 28.5791 113.157 28.5791ZM113.383 21.7277C112.032 21.7277 110.633 22.323 110.054 23.6418L111.71 24.3332C112.064 23.6418 112.723 23.4168 113.415 23.4168C114.38 23.4168 115.361 23.9953 115.377 25.025V25.1535C115.039 24.9605 114.315 24.6711 113.431 24.6711C111.645 24.6711 109.828 25.6519 109.828 27.4854C109.828 29.1581 111.292 30.2357 112.932 30.2357C114.186 30.2357 114.879 29.6728 115.312 29.0132H115.377V29.9787H117.179V25.1854C117.179 22.9659 115.521 21.7277 113.383 21.7277ZM101.851 23.523H99.1971V19.238H101.851C103.246 19.238 104.038 20.3927 104.038 21.3804C104.038 22.3492 103.246 23.523 101.851 23.523ZM101.803 17.4977H97.332V29.9995H99.1972V25.2633H101.803C103.871 25.2633 105.904 23.7664 105.904 21.3809C105.904 18.9958 103.871 17.4977 101.803 17.4977ZM77.4227 28.5812C76.1336 28.5812 75.0547 27.5015 75.0547 26.02C75.0547 24.5212 76.1336 23.4262 77.4227 23.4262C78.6954 23.4262 79.6942 24.5212 79.6942 26.02C79.6942 27.5015 78.6954 28.5812 77.4227 28.5812ZM79.5652 22.701H79.5007C79.082 22.2017 78.2761 21.7506 77.2617 21.7506C75.1348 21.7506 73.1856 23.6197 73.1856 26.02C73.1856 28.4039 75.1348 30.2566 77.2617 30.2566C78.2761 30.2566 79.082 29.8054 79.5007 29.2902H79.5652V29.9019C79.5652 31.5296 78.6954 32.3991 77.2938 32.3991C76.1504 32.3991 75.4415 31.5776 75.1512 30.885L73.5244 31.5616C73.9912 32.6888 75.2313 34.0748 77.2938 34.0748C79.4852 34.0748 81.3379 32.7857 81.3379 29.644V22.0082H79.5653L79.5652 22.701ZM82.6269 29.9988H84.4949V17.497H82.6269V29.9988ZM87.2499 25.8747C87.2019 24.2314 88.5233 23.3938 89.4733 23.3938C90.2147 23.3938 90.8424 23.7645 91.0526 24.2958L87.2499 25.8747ZM93.0494 24.4567C92.6951 23.5068 91.6159 21.7506 89.4088 21.7506C87.2175 21.7506 85.3972 23.4743 85.3972 26.0036C85.3972 28.388 87.2019 30.2567 89.6178 30.2567C91.567 30.2567 92.6952 29.0649 93.1627 28.3719L91.7127 27.4052C91.2292 28.1141 90.569 28.5813 89.6178 28.5813C88.6679 28.5813 87.9909 28.1462 87.5566 27.2924L93.2428 24.9404L93.0494 24.4567ZM47.7424 23.0556V24.8599H52.0598C51.9309 25.8748 51.5926 26.6157 51.077 27.1313C50.4485 27.7594 49.4657 28.4524 47.7423 28.4524C45.0841 28.4524 43.006 26.3098 43.006 23.6517C43.006 20.9935 45.0841 18.8507 47.7423 18.8507C49.1762 18.8507 50.2231 19.4147 50.9964 20.1396L52.2695 18.8666C51.1898 17.8358 49.7562 17.0464 47.7423 17.0464C44.1009 17.0464 41.04 20.0107 41.04 23.6517C41.04 27.2923 44.1009 30.2567 47.7423 30.2567C49.7075 30.2567 51.1898 29.6122 52.3496 28.404C53.5418 27.2118 53.9124 25.5364 53.9124 24.183C53.9124 23.7646 53.8799 23.3779 53.8155 23.0556H47.7424ZM58.8215 28.5812C57.5323 28.5812 56.4207 27.518 56.4207 26.0036C56.4207 24.4732 57.5323 23.4263 58.8215 23.4263C60.11 23.4263 61.2217 24.4732 61.2217 26.0036C61.2217 27.518 60.11 28.5812 58.8215 28.5812ZM58.8215 21.7506C56.4687 21.7506 54.5519 23.5387 54.5519 26.0036C54.5519 28.4524 56.4687 30.2567 58.8215 30.2567C61.1733 30.2567 63.0905 28.4524 63.0905 26.0036C63.0905 23.5387 61.1733 21.7506 58.8215 21.7506ZM68.1343 28.5812C66.8461 28.5812 65.734 27.518 65.734 26.0036C65.734 24.4732 66.8461 23.4263 68.1343 23.4263C69.4234 23.4263 70.5347 24.4732 70.5347 26.0036C70.5347 27.518 69.4234 28.5812 68.1343 28.5812ZM68.1343 21.7506C65.7824 21.7506 63.8656 23.5387 63.8656 26.0036C63.8656 28.4524 65.7824 30.2567 68.1343 30.2567C70.487 30.2567 72.4038 28.4524 72.4038 26.0036C72.4038 23.5387 70.487 21.7506 68.1343 21.7506Z" fill="white" style="fill:white;fill-opacity:1;"/>
    <path d="M20.7139 19.4235L10.0684 30.723C10.0688 30.7254 10.0696 30.7273 10.0699 30.7297C10.3964 31.9567 11.5171 32.8602 12.8472 32.8602C13.3789 32.8602 13.8781 32.7164 14.3062 32.4641L14.3402 32.4442L26.3238 25.5291L20.7139 19.4235Z" fill="#EB3131" style="fill:#EB3131;fill:color(display-p3 0.9208 0.1918 0.1918);fill-opacity:1;"/>
    <path d="M31.4849 17.4994L31.4747 17.4924L26.301 14.4932L20.4722 19.6799L26.3212 25.5282L31.4676 22.5588C32.3699 22.0717 32.9824 21.1205 32.9824 20.0236C32.9824 18.9346 32.3782 17.9881 31.4849 17.4994Z" fill="#F6B60B" style="fill:#F6B60B;fill:color(display-p3 0.9647 0.7137 0.0431);fill-opacity:1;"/>
    <path d="M10.0669 9.27637C10.0029 9.51236 9.96924 9.75956 9.96924 10.0163V29.9836C9.96924 30.2398 10.0025 30.4879 10.0673 30.723L21.0803 19.7122L10.0669 9.27637Z" fill="#5778C5" style="fill:#5778C5;fill:color(display-p3 0.3412 0.4706 0.7725);fill-opacity:1;"/>
    <path d="M20.7925 20.0001L26.303 14.4912L14.3329 7.55113C13.8978 7.29054 13.39 7.14014 12.8466 7.14014C11.5166 7.14014 10.3943 8.04524 10.0678 9.27367C10.0674 9.27487 10.0674 9.2757 10.0674 9.27675L20.7925 20.0001Z" fill="#3BAD49" style="fill:#3BAD49;fill:color(display-p3 0.2314 0.6784 0.2863);fill-opacity:1;"/>
    <path d="M47.3923 9.7804H44.4752V10.5023H46.6611C46.6017 11.0914 46.3673 11.5539 45.972 11.8898C45.5768 12.2258 45.072 12.3945 44.4752 12.3945C43.8205 12.3945 43.2658 12.1664 42.8112 11.7133C42.3658 11.2508 42.1393 10.6789 42.1393 9.98987C42.1393 9.30089 42.3658 8.72897 42.8112 8.26651C43.2658 7.81342 43.8205 7.58683 44.4752 7.58683C44.8112 7.58683 45.1315 7.64463 45.4251 7.77122C45.7189 7.89772 45.9548 8.07432 46.1392 8.30092L46.6939 7.74623C46.4423 7.46024 46.1236 7.24153 45.7282 7.08214C45.3329 6.92274 44.9205 6.84624 44.4751 6.84624C43.6017 6.84624 42.8612 7.14934 42.2564 7.75405C41.6517 8.36024 41.3486 9.10713 41.3486 9.98989C41.3486 10.8726 41.6517 11.6211 42.2564 12.2259C42.8611 12.8305 43.6017 13.1337 44.4751 13.1337C45.3923 13.1337 46.1235 12.8399 46.686 12.243C47.1813 11.7462 47.4344 11.0743 47.4344 10.2337C47.4344 10.0915 47.4173 9.9398 47.3923 9.7804ZM48.5224 6.98049V12.9992H52.0363V12.2601H49.2958V10.3508H51.7677V9.62894H49.2958V7.72115H52.0363V6.98047L48.5224 6.98049ZM56.9637 7.72118V6.98049H52.8278V7.72118H54.5091V12.9992H55.2825V7.72118H56.9637ZM60.7081 6.98049H59.9347V12.9992H60.7081V6.98049ZM65.8131 7.72118V6.98049H61.6773V7.72118H63.3584V12.9992H64.1318V7.72118H65.8131ZM73.6176 7.76337C73.0208 7.14929 72.2895 6.84619 71.4161 6.84619C70.5411 6.84619 69.81 7.14928 69.213 7.754C68.6161 8.35089 68.3225 9.09928 68.3225 9.98984C68.3225 10.8804 68.6162 11.6289 69.213 12.2258C69.8099 12.8304 70.5411 13.1336 71.4161 13.1336C72.2817 13.1336 73.0207 12.8304 73.6176 12.2258C74.2145 11.6289 74.5082 10.8805 74.5082 9.98984C74.5082 9.10708 74.2145 8.36015 73.6176 7.76337ZM69.7677 8.26646C70.213 7.81337 70.7599 7.58678 71.4161 7.58678C72.0708 7.58678 72.6177 7.81338 73.0551 8.26646C73.5004 8.71175 73.7191 9.29292 73.7191 9.98982C73.7191 10.6883 73.5004 11.2679 73.0551 11.7133C72.6177 12.1663 72.0708 12.3944 71.4161 12.3944C70.7599 12.3944 70.213 12.1663 69.7677 11.7133C69.3317 11.2586 69.113 10.6883 69.113 9.98982C69.113 9.29293 69.3317 8.72111 69.7677 8.26646ZM76.3457 9.25084L76.3129 8.08983H76.3457L79.4051 12.9991H80.2128V6.98043H79.4394V10.5022L79.4722 11.6632H79.4394L76.5145 6.98043H75.5723V12.9991H76.3457V9.25084Z" fill="white" stroke="white" style="fill:white;fill-opacity:1;stroke:white;stroke-opacity:1;" stroke-width="0.26666" stroke-miterlimit="10"/>
</svg>