<svg width="51" height="40" viewBox="0 0 51 40" fill="none" xmlns="http://www.w3.org/2000/svg">
    <rect x="0.03125" width="50" height="40" fill="#009DDF" style="fill:#009DDF;fill:color(display-p3 0.0000 0.6157 0.8745);fill-opacity:1;"/>
    <path d="M19.9646 18.2662C20.6146 17.6201 21.6646 17.6201 22.3146 18.2662L26.1396 22.0912L28.2982 19.9326L28.2975 19.9334C28.9475 19.2873 29.9975 19.2873 30.6475 19.9334L33.5725 22.8584V14.9998C33.5725 13.8951 33.1334 12.835 32.3521 12.0538C31.5709 11.2726 30.5107 10.8335 29.4061 10.8335H19.4061C18.3015 10.8335 17.2413 11.2726 16.4601 12.0538C15.6789 12.8351 15.2398 13.8952 15.2398 14.9998V22.9912L19.9646 18.2662ZM28.5724 14.9998C29.0779 14.9998 29.5342 15.3045 29.7279 15.7717C29.9209 16.2389 29.8138 16.7764 29.4568 17.1334C29.099 17.4913 28.5615 17.5983 28.0943 17.4045C27.6271 17.2116 27.3224 16.7553 27.3224 16.2499C27.3224 15.5592 27.8826 14.9998 28.5724 14.9998ZM33.5725 25.1912C33.5232 26.2631 33.0631 27.274 32.2865 28.0146C31.5107 28.7553 30.4787 29.1678 29.4061 29.1662H19.4061C18.3538 29.1693 17.3389 28.774 16.5663 28.06C15.7936 27.3459 15.3194 26.3654 15.2397 25.3162L21.0733 19.4826L24.8983 23.3076L24.8976 23.3083C25.5476 23.9544 26.5976 23.9544 27.2476 23.3083L29.4062 21.1497L33.5725 25.1912Z" fill="white" style="fill:white;fill-opacity:1;"/>
</svg>
