<svg width="21" height="20" viewBox="0 0 21 20" fill="none" xmlns="http://www.w3.org/2000/svg">
    <g clip-path="url(#clip0_233_583)">
        <path d="M6.40215 8.26624C7.05215 7.62014 8.10215 7.62014 8.75215 8.26624L12.5771 12.0912L14.7357 9.93264L14.735 9.93342C15.385 9.28732 16.435 9.28732 17.085 9.93342L20.01 12.8584V4.99982C20.01 3.89514 19.5709 2.83502 18.7896 2.05382C18.0084 1.27262 16.9482 0.833496 15.8436 0.833496H5.84365C4.73897 0.833496 3.67885 1.27256 2.89764 2.05382C2.11644 2.83508 1.67732 3.89522 1.67732 4.99982V12.9912L6.40215 8.26624ZM15.0099 4.99984C15.5154 4.99984 15.9717 5.30452 16.1654 5.77172C16.3584 6.2389 16.2513 6.7764 15.8943 7.13344C15.5365 7.49126 14.999 7.59828 14.5318 7.40454C14.0646 7.21157 13.7599 6.75532 13.7599 6.24986C13.7599 5.55924 14.3201 4.99984 15.0099 4.99984ZM20.01 15.1912C19.9607 16.2631 19.5006 17.274 18.724 18.0146C17.9482 18.7553 16.9162 19.1678 15.8436 19.1662H5.84361C4.79127 19.1693 3.77641 18.774 3.00381 18.06C2.23115 17.3459 1.75693 16.3654 1.67725 15.3162L7.51085 9.48256L11.3358 13.3076L11.3351 13.3083C11.9851 13.9544 13.0351 13.9544 13.6851 13.3083L15.8437 11.1497L20.01 15.1912Z" fill="white" style="fill:white;fill-opacity:1;"/>
    </g>
    <defs>
        <clipPath id="clip0_233_583">
            <rect width="20" height="20" fill="white" style="fill:white;fill-opacity:1;" transform="translate(0.84375)"/>
        </clipPath>
    </defs>
</svg>