<svg width="40" height="36" viewBox="0 0 40 36" fill="none" xmlns="http://www.w3.org/2000/svg">
  <rect x="0.5" y="0.5" width="39" height="35" rx="4.5" fill="#FCFCFC" stroke="#E4E4E4" style="fill:#FCFCFC;fill:color(display-p3 0.9882 0.9882 0.9882);fill-opacity:1;stroke:#E4E4E4;stroke:color(display-p3 0.8939 0.8939 0.8939);stroke-opacity:1;"/>
  <path d="M24.9393 17.636C24.9159 15.1093 27.0612 13.88 27.1593 13.8228C25.9443 12.0957 24.0612 11.8598 23.3995 11.8409C21.8179 11.6787 20.2838 12.7637 19.4781 12.7637C18.6563 12.7637 17.4157 11.8566 16.0785 11.8833C14.3578 11.9091 12.7481 12.8805 11.8652 14.3888C10.0432 17.4643 11.4021 21.9838 13.1477 24.4697C14.0209 25.6872 15.0413 27.0466 16.3768 26.9988C17.6834 26.9462 18.1715 26.1866 19.7482 26.1866C21.3105 26.1866 21.7689 26.9988 23.1309 26.9682C24.5332 26.9462 25.4161 25.7452 26.2587 24.5168C27.2678 23.1213 27.6731 21.747 27.6891 21.6765C27.6562 21.6655 24.9658 20.6644 24.9393 17.636Z" fill="black" style="fill:black;fill-opacity:1;"/>
  <path d="M22.3663 10.2056C23.069 9.34874 23.5498 8.18299 23.4164 7C22.3992 7.0439 21.1272 7.68596 20.3947 8.52402C19.7466 9.2625 19.1677 10.4729 19.3173 11.6112C20.4598 11.6943 21.633 11.0491 22.3663 10.2056Z" fill="black" style="fill:black;fill-opacity:1;"/>
</svg>