<svg width="28" height="25" viewBox="0 0 28 25" fill="none" xmlns="http://www.w3.org/2000/svg">
  <path d="M12.8408 0.148094C12.5361 2.83132 13.7105 4.00156 16.3533 3.66828C16.4587 3.65526 16.5421 3.77112 16.4809 3.85705C15.7609 4.85821 14.3835 5.35425 12.9814 4.7163C12.458 4.47805 12.0271 4.04713 11.7888 3.52377C11.1483 2.11903 11.6482 0.740283 12.652 0.0202485C12.7379 -0.0396399 12.8525 0.042641 12.8408 0.148094Z" fill="black" style="fill:black;fill-opacity:1;"/>
  <path d="M24.9966 23.0003V14.0015C24.9966 13.4495 24.5487 13.0017 23.9967 13.0017H3.99945C3.44746 13.0017 2.99959 13.4495 2.99959 14.0015V23.0003H0.499931C0.223929 23.0003 0 23.2242 0 23.5002V24.5001C0 24.7761 0.223929 25 0.499931 25H27.4962C27.7722 25 27.9961 24.7761 27.9961 24.5001V23.5002C27.9961 23.2242 27.7722 23.0003 27.4962 23.0003H24.9966ZM7.9989 20.0007H4.99931V18.5009C4.99931 17.6729 5.67108 17.0011 6.4991 17.0011C7.32712 17.0011 7.9989 17.6729 7.9989 18.5009V20.0007ZM16.9977 23.0003H10.9985V19.0008C10.9985 17.9398 11.9983 16.0012 13.9981 16.0012C15.9978 16.0012 16.9977 17.9398 16.9977 19.0008V23.0003ZM22.9968 20.0007H19.9972V18.5009C19.9972 17.6729 20.669 17.0011 21.497 17.0011C22.3251 17.0011 22.9968 17.6729 22.9968 18.5009V20.0007Z" fill="black" style="fill:black;fill-opacity:1;"/>
  <path d="M8.02344 11.5019C8.27861 8.42285 10.8538 6.00262 13.9979 6.00262C17.1421 6.00262 19.7172 8.42285 19.9725 11.5019H8.02344Z" fill="black" style="fill:black;fill-opacity:1;"/>
</svg>