<svg width="18" height="20" viewBox="0 0 18 20" fill="none" xmlns="http://www.w3.org/2000/svg">
    <path fill-rule="evenodd" clip-rule="evenodd" d="M4.55866 10.8013H15.9962C16.571 10.804 17.0365 11.2694 17.0392 11.8452V15.9529C17.0365 16.5277 16.571 16.9932 15.9962 16.9959H4.55866C3.98385 16.9932 3.5184 16.5277 3.51569 15.9529V11.8452C3.5184 11.2694 3.98385 10.804 4.55866 10.8013ZM1.41804 0C0.636268 0.00271143 0.00180469 0.636268 0 1.41895V18.5811C0.00180746 19.3637 0.636268 19.9982 1.41804 20H13.677C14.4596 19.9982 15.0932 19.3637 15.0959 18.5811V17.6411H4.55862C3.62772 17.6384 2.87304 16.8837 2.87033 15.9528V11.8451C2.87304 10.9133 3.6277 10.1586 4.55862 10.1559H15.0959V3.59979H11.4229C11.2449 3.59979 11.1003 3.45519 11.1003 3.27715V2.30581e-05L1.41804 0ZM11.7448 0.287408L14.7345 2.95441H11.7457V0.288333L11.7448 0.287408ZM5.17434 15.5507H5.84314L5.84404 14.3052H6.27876C6.51013 14.3098 6.7415 14.2935 6.96926 14.2564C7.09308 14.2275 7.21058 14.1751 7.31361 14.1019C7.43201 14.0169 7.52781 13.9049 7.59378 13.7747C7.6715 13.6156 7.70946 13.4403 7.70404 13.2632C7.71398 13.0336 7.6471 12.8067 7.51244 12.6197C7.39585 12.4606 7.22773 12.3467 7.03704 12.2961C6.77585 12.2528 6.51014 12.2365 6.24531 12.2473H5.17432L5.17434 15.5507ZM5.84314 12.805V13.7467H6.20736C6.3845 13.7567 6.56163 13.7386 6.73245 13.6943C6.81741 13.6627 6.88971 13.6057 6.94033 13.5307C6.99184 13.4548 7.01805 13.3653 7.01624 13.2731C7.01986 13.1638 6.9819 13.0571 6.9105 12.9749C6.84091 12.8972 6.74601 12.8447 6.64299 12.8276C6.48392 12.8086 6.32395 12.8005 6.16398 12.805L5.84314 12.805ZM9.01453 12.2464V15.5506H10.2681C10.466 15.557 10.6648 15.5335 10.8565 15.481C11.0309 15.4304 11.1909 15.3401 11.3246 15.2171C11.4864 15.0527 11.6075 14.8529 11.6771 14.6324C11.7494 14.4056 11.7837 14.1679 11.7783 13.9292C11.7855 13.6653 11.7485 13.4014 11.6708 13.1493C11.6066 12.9495 11.499 12.767 11.3562 12.6133C11.2207 12.4687 11.049 12.363 10.8592 12.3088C10.6531 12.2599 10.4425 12.2383 10.231 12.2455L9.01453 12.2464ZM9.68332 12.805V14.9922H10.1804C10.3142 14.9967 10.4488 14.9858 10.5817 14.9605C10.6811 14.9379 10.7733 14.8909 10.8492 14.8231C10.9342 14.7346 10.9947 14.6243 11.0227 14.505C11.0742 14.3071 11.0968 14.1037 11.0905 13.8995C11.0977 13.7015 11.0751 13.5036 11.0227 13.312C10.9884 13.1909 10.9233 13.0815 10.8347 12.9921C10.748 12.9125 10.6422 12.8592 10.5275 12.8366C10.3467 12.8095 10.1641 12.7987 9.98156 12.805L9.68332 12.805ZM13.1097 15.5507H13.7785V14.148H15.1631V13.5903H13.7785V12.8049H15.38V12.2464H13.1097V15.5507Z" fill="black" style="fill:black;fill-opacity:1;"/>
</svg>