<svg fill="none" height="14" viewBox="0 0 19 14" width="19" xmlns="http://www.w3.org/2000/svg">
                            <path
                                d="M2.73913 0V12.0217C2.73913 12.2235 2.65897 12.4171 2.51628 12.5598C2.37359 12.7024 2.18006 12.7826 1.97826 12.7826C1.77647 12.7826 1.58294 12.7024 1.44024 12.5598C1.29755 12.4171 1.21739 12.2235 1.21739 12.0217V3.04348H0V12.0217C0.000594078 12.5462 0.209208 13.0491 0.580075 13.4199C0.950943 13.7908 1.45378 13.9994 1.97826 14H16.2826C16.8071 13.9994 17.3099 13.7908 17.6808 13.4199C18.0517 13.0491 18.2603 12.5462 18.2609 12.0217V0H2.73913ZM17.0435 12.0217C17.0432 12.2235 16.963 12.4169 16.8204 12.5595C16.6777 12.7021 16.4843 12.7824 16.2826 12.7826H3.80435C3.90507 12.5416 3.9568 12.2829 3.95652 12.0217V1.21739H17.0435V12.0217Z"
                                fill="#fff" />
                            <path
                                d="M10.6521 2.43478H5.17383V8.52174H10.6521V2.43478ZM9.4347 7.30435H6.39122V3.65218H9.4347V7.30435Z"
                                fill="#fff" />
                            <path d="M11.8691 2.43478H15.8257V3.65218H11.8691V2.43478Z" fill="#fff" />
                            <path d="M11.8691 4.8696H15.8257V6.08699H11.8691V4.8696Z" fill="#fff" />
                            <path d="M11.8691 7.30432H15.8257V8.52171H11.8691V7.30432Z" fill="#fff" />
                        </svg>