<svg width="35" height="35" viewBox="0 0 35 35" fill="none" xmlns="http://www.w3.org/2000/svg">
    <path d="M17.5 0C7.83445 0 0 7.83445 0 17.5C0 27.1656 7.83445 35 17.5 35C27.1656 35 35 27.1656 35 17.5C35 7.83445 27.1656 0 17.5 0ZM12.9649 9.39024C13.2934 9.38357 13.6335 9.46361 13.9653 9.64367L24.6361 15.8195C25.2163 16.1563 25.6098 16.7765 25.6098 17.5001C25.6098 18.2237 25.2163 18.8439 24.6361 19.1807L13.9653 25.3565C12.6398 26.0752 11.1309 25.1598 11.0976 23.6492V11.3378C11.1226 10.2057 11.9779 9.41193 12.9649 9.39024Z" fill="white" style="fill:white;fill-opacity:1;"/>
</svg>