<svg width="29" height="29" viewBox="0 0 29 29" fill="none" xmlns="http://www.w3.org/2000/svg">
    <rect x="0.14209" width="28.03" height="28.03" rx="6.40685" fill="#2D64BC" style="fill:#2D64BC;fill:color(display-p3 0.1765 0.3922 0.7373);fill-opacity:1;"/>
    <path d="M9.79241 8.24964C9.7922 8.65801 9.62785 9.04957 9.33551 9.33818C9.04317 9.6268 8.64679 9.78882 8.23356 9.78862C7.82033 9.78841 7.42412 9.626 7.13207 9.33709C6.84002 9.04819 6.67606 8.65647 6.67627 8.2481C6.67648 7.83973 6.84083 7.44817 7.13317 7.15956C7.42551 6.87094 7.82189 6.70892 8.23512 6.70912C8.64834 6.70933 9.04456 6.87174 9.33661 7.16065C9.62866 7.44955 9.79261 7.84127 9.79241 8.24964ZM9.83915 10.9288H6.72301V20.5676H9.83915V10.9288ZM14.7626 10.9288H11.6621V20.5676H14.7315V15.5096C14.7315 12.6918 18.4475 12.4301 18.4475 15.5096V20.5676H21.5247V14.4625C21.5247 9.7124 16.0247 9.88947 14.7315 12.2222L14.7626 10.9288Z" fill="white" style="fill:white;fill-opacity:1;"/>
</svg>