<svg width="29" height="29" viewBox="0 0 29 29" fill="none" xmlns="http://www.w3.org/2000/svg">
    <rect x="0.261719" width="28.03" height="28.03" rx="6.40685" fill="#54A7E5" style="fill:#54A7E5;fill:color(display-p3 0.3294 0.6549 0.8980);fill-opacity:1;"/>
    <path fill-rule="evenodd" clip-rule="evenodd" d="M19.7608 6.80393C19.9603 6.71998 20.1786 6.69103 20.393 6.72008C20.6075 6.74914 20.8102 6.83514 20.9802 6.96914C21.1501 7.10314 21.281 7.28023 21.3593 7.48199C21.4375 7.68375 21.4603 7.9028 21.4251 8.11634L19.5946 19.2201C19.417 20.2912 18.2418 20.9054 17.2595 20.3719C16.4378 19.9255 15.2175 19.2379 14.1198 18.5203C13.5709 18.1611 11.8896 17.011 12.0963 16.1925C12.2738 15.4928 15.0988 12.8631 16.7131 11.2997C17.3467 10.6854 17.0577 10.3311 16.3095 10.8961C14.4515 12.2989 11.4683 14.4322 10.482 15.0327C9.6119 15.5622 9.15829 15.6526 8.61589 15.5622C7.62635 15.3975 6.70863 15.1425 5.95961 14.8317C4.94746 14.412 4.9967 13.0205 5.9588 12.6153L19.7608 6.80393Z" fill="white" style="fill:white;fill-opacity:1;"/>
</svg>