<svg width="29" height="29" viewBox="0 0 29 29" fill="none" xmlns="http://www.w3.org/2000/svg">
    <rect x="0.20166" width="28.03" height="28.03" rx="6.40685" fill="#F60007" style="fill:#F60007;fill:color(display-p3 0.9647 0.0000 0.0275);fill-opacity:1;"/>
    <path d="M12.6476 16.1513L16.9947 13.6385L12.6476 11.1257V16.1513ZM22.3303 9.5929C22.4392 9.98657 22.5145 10.5143 22.5648 11.1843C22.6234 11.8544 22.6486 12.4324 22.6486 12.9349L22.6988 13.6385C22.6988 15.4729 22.5648 16.8214 22.3303 17.6841C22.1209 18.438 21.6351 18.9238 20.8812 19.1332C20.4875 19.2421 19.7672 19.3175 18.6616 19.3677C17.5727 19.4263 16.5759 19.4515 15.6546 19.4515L14.3228 19.5017C10.8132 19.5017 8.6271 19.3677 7.76437 19.1332C7.01053 18.9238 6.52472 18.438 6.31532 17.6841C6.20643 17.2905 6.13105 16.7628 6.08079 16.0927C6.02216 15.4226 5.99703 14.8447 5.99703 14.3421L5.94678 13.6385C5.94678 11.8042 6.08079 10.4556 6.31532 9.5929C6.52472 8.83905 7.01053 8.35324 7.76437 8.14384C8.15805 8.03496 8.87838 7.95957 9.98402 7.90932C11.0729 7.85068 12.0696 7.82556 12.991 7.82556L14.3228 7.7753C17.8323 7.7753 20.0185 7.90932 20.8812 8.14384C21.6351 8.35324 22.1209 8.83905 22.3303 9.5929Z" fill="white" style="fill:white;fill-opacity:1;"/>
</svg>