<svg width="28" height="20" viewBox="0 0 28 20" fill="none" xmlns="http://www.w3.org/2000/svg">
  <path d="M16.1906 13.5739C16.8295 12.0822 18.3021 11.1009 19.9441 11.1009C21.2347 11.1009 22.4069 11.7004 23.163 12.6652C23.4824 11.7068 23.6555 10.6848 23.6555 9.62201C23.6555 4.31721 19.3383 0 14.0335 0C11.7883 0 9.72019 0.77257 8.08323 2.06568C8.57197 2.4628 8.96271 2.99097 9.19818 3.60062C9.51383 3.50262 9.84348 3.45044 10.182 3.45044C11.997 3.45044 13.4758 4.92683 13.4758 6.74423C13.4758 8.55918 11.9994 10.038 10.182 10.038L4.42139 10.0393C4.63012 14.8873 8.44601 18.8174 13.2441 19.2107C12.8598 18.6341 12.6383 17.9468 12.6383 17.2035C12.6383 15.2295 14.2254 13.6168 16.1905 13.5735L16.1906 13.5739Z" fill="black" style="fill:black;fill-opacity:1;"/>
  <path d="M2.45022 9.20456H10.1821C11.5376 9.20456 12.6386 8.10362 12.6386 6.74812C12.6386 5.39261 11.5376 4.29167 10.1821 4.29167C9.80793 4.29167 9.449 4.37313 9.11681 4.53604C9.00227 4.59204 8.86863 4.59204 8.75534 4.53986C8.64079 4.48767 8.55679 4.38331 8.52752 4.25985C8.21441 2.97563 7.07146 2.07961 5.74782 2.07961C4.52215 2.07961 3.43392 2.85853 3.03683 4.01548C2.97447 4.19494 2.80264 4.30822 2.613 4.2993C2.56081 4.29549 2.50863 4.29294 2.45645 4.29294C1.10094 4.29294 0 5.39388 0 6.74939C0 8.09724 1.09856 9.20199 2.45022 9.20456Z" fill="black" style="fill:black;fill-opacity:1;"/>
  <path d="M24.9006 14.4113C24.4742 14.4113 24.067 14.5055 23.6889 14.6887C23.5744 14.7448 23.4446 14.7448 23.3275 14.6926C23.2129 14.6404 23.1289 14.536 23.0996 14.4126C22.7446 12.9565 21.4451 11.9396 19.9457 11.9396C18.5572 11.9396 17.32 12.8229 16.8733 14.1351C16.8109 14.3146 16.6391 14.4279 16.4494 14.4189C16.3909 14.4151 16.3323 14.4126 16.27 14.4126C14.7287 14.4126 13.4775 15.6675 13.4775 17.2076C13.4775 18.7451 14.7287 19.9962 16.2636 20H24.902C26.4433 20 27.6969 18.745 27.6969 17.2076C27.6957 15.6662 26.4407 14.4113 24.9006 14.4113Z" fill="black" style="fill:black;fill-opacity:1;"/>
</svg>