<svg width="32" height="29" viewBox="0 0 32 29" fill="none" xmlns="http://www.w3.org/2000/svg">
    <rect x="0.5" y="0.514984" width="30.1111" height="27" rx="3.5" stroke="#E4E4E4" style="stroke:#E4E4E4;stroke:color(display-p3 0.8939 0.8939 0.8939);stroke-opacity:1;"/>
    <path d="M14.4052 6.2373H14.4066C16.2365 6.2373 17.8943 6.97974 19.092 8.1782L19.1539 8.24489C20.3135 9.43647 21.0288 11.0663 21.0281 12.8629H21.0322V12.8643C21.0322 14.3056 20.5708 15.6421 19.7889 16.7302L23.02 19.9613C23.4385 20.3798 23.4385 21.0597 23.02 21.4789C22.6008 21.8974 21.921 21.8974 21.5025 21.4789L18.2714 18.2478C17.1832 19.0297 15.8467 19.4911 14.4054 19.4911H14.4041C12.5748 19.4911 10.917 18.7486 9.71931 17.5502C8.52296 16.3545 7.78329 14.696 7.7826 12.8654H7.77783V12.8641C7.77783 11.0348 8.52095 9.37581 9.71943 8.1781C10.9171 6.97971 12.5762 6.2372 14.4054 6.2372L14.4052 6.2373ZM14.4066 8.3822H14.4052C13.168 8.3822 12.0466 8.8851 11.2361 9.69493C10.4263 10.5061 9.9234 11.6269 9.9234 12.864V12.8654H9.91864C9.91864 14.0978 10.4236 15.22 11.2361 16.0326C12.0466 16.843 13.1674 17.346 14.404 17.346H14.4054C15.6425 17.346 16.7633 16.8431 17.5739 16.0326C18.3844 15.2221 18.8873 14.1012 18.8873 12.864V12.8626H18.8914C18.8914 11.6554 18.4103 10.555 17.6297 9.7458L17.5746 9.69476C16.7648 8.88495 15.6433 8.38203 14.4067 8.38203" fill="#696969" style="fill:#696969;fill:color(display-p3 0.4132 0.4132 0.4132);fill-opacity:1;"/>
</svg>