<svg width="20" height="20" viewBox="0 0 20 20" fill="none" xmlns="http://www.w3.org/2000/svg">
  <path fill-rule="evenodd" clip-rule="evenodd" d="M0 9.63659C0 4.31459 4.31459 0 9.63659 0C14.9586 0 19.2732 4.31459 19.2732 9.63659C19.2732 14.9586 14.9586 19.2732 9.63659 19.2732C4.31459 19.2732 0 14.9586 0 9.63659ZM10.6005 4.81876C10.6005 4.28665 10.1687 3.85482 9.63659 3.85482C9.10449 3.85482 8.67266 4.28665 8.67266 4.81876V8.6375C8.67266 8.86155 8.67266 9.091 8.69163 9.28976C8.71241 9.51742 8.7621 9.77126 8.90122 10.0305C9.03944 10.2889 9.22373 10.4714 9.40171 10.6159C9.55619 10.7415 9.74681 10.868 9.93382 10.9927L11.9927 12.3658C12.4353 12.6612 13.0343 12.5411 13.3297 12.0984C13.6242 11.6558 13.5049 11.0577 13.0623 10.7623L11.0296 9.4072C10.8047 9.25723 10.6909 9.18044 10.615 9.11811L10.6104 9.1154V9.10998C10.6014 9.01241 10.6005 8.8751 10.6005 8.60497L10.6005 4.81876Z" fill="#484848" style="fill:#484848;fill:color(display-p3 0.2816 0.2816 0.2816);fill-opacity:1;"/>
</svg>