<svg width="20" height="20" viewBox="0 0 20 20" fill="none" xmlns="http://www.w3.org/2000/svg">
  <g clip-path="url(#clip0_209_37)">
    <path d="M17.5853 2.02369H15.947V3.19966C15.947 4.22129 15.1181 5.05019 14.0965 5.05019H13.769C12.7474 5.05019 11.9185 4.22129 11.9185 3.19966V2.02369H8.43042V3.19966C8.43042 4.22129 7.60152 5.05019 6.57988 5.05019H6.23281C5.21118 5.05019 4.38228 4.22129 4.38228 3.19966V2.02369H2.74405C1.87676 2.02369 1.18262 2.71783 1.18262 3.58512V17.2307C1.18262 18.098 1.87676 18.7922 2.74405 18.7922H17.5648C18.432 18.7922 19.1262 18.098 19.1262 17.2307L19.1269 3.58512C19.1465 2.71783 18.4526 2.02369 17.5853 2.02369ZM16.7948 15.6693C16.7948 16.0932 16.4477 16.4402 16.0238 16.4402H4.3063C3.88244 16.4402 3.53537 16.0932 3.53537 15.6693V8.8462C3.53537 8.40276 3.88244 8.07527 4.3063 8.07527H16.0049C16.4288 8.07527 16.7759 8.42235 16.7759 8.8462V15.6693H16.7948Z" fill="#484848" style="fill:#484848;fill:color(display-p3 0.2816 0.2816 0.2816);fill-opacity:1;"/>
    <path d="M6.25231 4.10538H6.5798C7.08121 4.10538 7.48549 3.70034 7.48549 3.1997V1.46511C7.48549 0.925306 7.04205 0.481869 6.50224 0.481869H6.32909C5.78928 0.481869 5.34585 0.925306 5.34585 1.46511V3.1997C5.32702 3.70036 5.73209 4.10538 6.25231 4.10538Z" fill="#484848" style="fill:#484848;fill:color(display-p3 0.2816 0.2816 0.2816);fill-opacity:1;"/>
    <path d="M13.7502 4.10538H14.0777C14.5791 4.10538 14.9834 3.70034 14.9834 3.1997V1.46511C14.9834 0.925306 14.54 0.481869 14.0001 0.481869H13.827C13.2872 0.481869 12.8438 0.925306 12.8438 1.46511V3.1997C12.8438 3.70036 13.2488 4.10538 13.7502 4.10538Z" fill="#484848" style="fill:#484848;fill:color(display-p3 0.2816 0.2816 0.2816);fill-opacity:1;"/>
    <path d="M7.08135 9.4242H5.40473C5.13522 9.4242 4.90332 9.65533 4.90332 9.92562V11.1588C4.90332 11.4283 5.13444 11.6602 5.40473 11.6602H7.08135C7.35086 11.6602 7.58276 11.4291 7.58276 11.1588V9.92562C7.58276 9.6561 7.37044 9.4242 7.08135 9.4242Z" fill="#484848" style="fill:#484848;fill:color(display-p3 0.2816 0.2816 0.2816);fill-opacity:1;"/>
    <path d="M11.0125 9.4242H9.33588C9.06637 9.4242 8.83447 9.65533 8.83447 9.92562V11.1588C8.83447 11.4283 9.0656 11.6602 9.33588 11.6602H11.0125C11.282 11.6602 11.5139 11.4291 11.5139 11.1588V9.92562C11.5139 9.6561 11.2828 9.4242 11.0125 9.4242Z" fill="#484848" style="fill:#484848;fill:color(display-p3 0.2816 0.2816 0.2816);fill-opacity:1;"/>
    <path d="M14.9256 9.4242H13.249C12.9795 9.4242 12.7476 9.65533 12.7476 9.92562V11.1588C12.7476 11.4283 12.9787 11.6602 13.249 11.6602H14.9256C15.1951 11.6602 15.427 11.4291 15.427 11.1588V9.92562C15.427 9.6561 15.2147 9.4242 14.9256 9.4242Z" fill="#484848" style="fill:#484848;fill:color(display-p3 0.2816 0.2816 0.2816);fill-opacity:1;"/>
    <path d="M7.08135 12.8363H5.40473C5.13522 12.8363 4.90332 13.0675 4.90332 13.3377V14.5709C4.90332 14.8404 5.13444 15.0723 5.40473 15.0723L7.08135 15.0716C7.35086 15.0716 7.58276 14.8405 7.58276 14.5702V13.337C7.58276 13.0675 7.37044 12.8363 7.08135 12.8363Z" fill="#484848" style="fill:#484848;fill:color(display-p3 0.2816 0.2816 0.2816);fill-opacity:1;"/>
    <path d="M11.0125 12.8363H9.33588C9.06637 12.8363 8.83447 13.0675 8.83447 13.3377V14.5709C8.83447 14.8404 9.0656 15.0723 9.33588 15.0723H11.0125C11.282 15.0723 11.5139 14.8412 11.5139 14.5709V13.3377C11.5139 13.0675 11.2828 12.8363 11.0125 12.8363Z" fill="#484848" style="fill:#484848;fill:color(display-p3 0.2816 0.2816 0.2816);fill-opacity:1;"/>
    <path d="M14.9256 12.8363H13.249C12.9795 12.8363 12.7476 13.0675 12.7476 13.3377V14.5709C12.7476 14.8404 12.9787 15.0723 13.249 15.0723H14.9256C15.1951 15.0723 15.427 14.8412 15.427 14.5709V13.3377C15.427 13.0675 15.2147 12.8363 14.9256 12.8363Z" fill="#484848" style="fill:#484848;fill:color(display-p3 0.2816 0.2816 0.2816);fill-opacity:1;"/>
  </g>
  <defs>
    <clipPath id="clip0_209_37">
      <rect width="19.2732" height="19.2732" fill="white" style="fill:white;fill-opacity:1;" transform="translate(0.52832)"/>
    </clipPath>
  </defs>
</svg>